<svg width="40" height="40" viewBox="0 0 40 40" fill="none" xmlns="http://www.w3.org/2000/svg">
<rect x="0.5" y="0.5" width="39" height="39" rx="19.5" fill="black" fill-opacity="0.2" stroke="white"/>
<path d="M12.4375 26.2917V24.3125H14.375V18.5208C14.375 17.2431 14.7465 16.0799 15.4896 15.0312C16.2326 13.9826 17.2292 13.3194 18.4792 13.0417V12.5417C18.4792 12.1111 18.6285 11.7569 18.9271 11.4792C19.2257 11.2014 19.5833 11.0625 20 11.0625C20.4167 11.0625 20.7743 11.2014 21.0729 11.4792C21.3715 11.7569 21.5208 12.1111 21.5208 12.5417V13.0417C22.7847 13.3194 23.7917 13.9826 24.5417 15.0312C25.2917 16.0799 25.6667 17.2431 25.6667 18.5208V24.3125H27.5833V26.2917H12.4375ZM20.0208 28.8542C19.5208 28.8542 19.0868 28.6736 18.7187 28.3125C18.3507 27.9514 18.1667 27.5208 18.1667 27.0208H21.8542C21.8542 27.5347 21.6736 27.9688 21.3125 28.3229C20.9514 28.6771 20.5208 28.8542 20.0208 28.8542Z" fill="white"/>
</svg>
