<svg width="40" height="40" viewBox="0 0 40 40" fill="#FFF" xmlns="http://www.w3.org/2000/svg">
<rect x="0.5" y="0.5" width="39" height="39" rx="19.5" stroke="#EAE9E9"/>
<path d="M19.9988 9.81836C17.2336 9.81836 16.8866 9.83045 15.8006 9.87987C14.7167 9.92951 13.9768 10.1011 13.3295 10.3529C12.6598 10.613 12.0918 10.9608 11.5258 11.527C10.9595 12.0929 10.6116 12.661 10.3507 13.3304C10.0983 13.9781 9.92649 14.7181 9.87771 15.8017C9.82913 16.8877 9.81641 17.235 9.81641 20.0002C9.81641 22.7654 9.82871 23.1114 9.87792 24.1974C9.92777 25.2814 10.0994 26.0212 10.3509 26.6686C10.6112 27.3383 10.9591 27.9064 11.5252 28.4723C12.0909 29.0387 12.659 29.3874 13.3282 29.6474C13.976 29.8992 14.716 30.0708 15.7997 30.1205C16.8858 30.1699 17.2326 30.182 19.9975 30.182C22.7628 30.182 23.1088 30.1699 24.1948 30.1205C25.2787 30.0708 26.0194 29.8992 26.6672 29.6474C27.3367 29.3874 27.9039 29.0387 28.4696 28.4723C29.0359 27.9064 29.3838 27.3383 29.6447 26.6688C29.895 26.0212 30.0668 25.2811 30.1177 24.1976C30.1665 23.1116 30.1792 22.7654 30.1792 20.0002C30.1792 17.235 30.1665 16.8879 30.1177 15.8019C30.0668 14.7179 29.895 13.9781 29.6447 13.3307C29.3838 12.661 29.0359 12.0929 28.4696 11.527C27.9032 10.9606 27.3369 10.6128 26.6666 10.3529C26.0175 10.1011 25.2772 9.92951 24.1933 9.87987C23.1073 9.83045 22.7616 9.81836 19.9956 9.81836H19.9988ZM19.0854 11.6532C19.3565 11.6528 19.659 11.6532 19.9988 11.6532C22.7172 11.6532 23.0394 11.663 24.1129 11.7118C25.1056 11.7571 25.6444 11.923 26.0033 12.0624C26.4784 12.2469 26.8172 12.4675 27.1733 12.8239C27.5297 13.1803 27.7503 13.5197 27.9353 13.9948C28.0746 14.3533 28.2407 14.8921 28.2859 15.8848C28.3347 16.9581 28.3453 17.2806 28.3453 19.9978C28.3453 22.7151 28.3347 23.0375 28.2859 24.1109C28.2405 25.1036 28.0746 25.6424 27.9353 26.0009C27.7507 26.476 27.5297 26.8144 27.1733 27.1705C26.817 27.5269 26.4787 27.7475 26.0033 27.932C25.6448 28.072 25.1056 28.2375 24.1129 28.2829C23.0396 28.3317 22.7172 28.3423 19.9988 28.3423C17.2801 28.3423 16.9579 28.3317 15.8846 28.2829C14.8919 28.2371 14.3531 28.0712 13.994 27.9318C13.5189 27.7473 13.1795 27.5267 12.8231 27.1703C12.4668 26.8139 12.2462 26.4754 12.0612 26C11.9219 25.6415 11.7558 25.1028 11.7106 24.11C11.6618 23.0367 11.652 22.7143 11.652 19.9953C11.652 17.2763 11.6618 16.9556 11.7106 15.8823C11.756 14.8895 11.9219 14.3508 12.0612 13.9918C12.2458 13.5167 12.4668 13.1773 12.8231 12.8209C13.1795 12.4646 13.5189 12.244 13.994 12.059C14.3529 11.919 14.8919 11.7535 15.8846 11.7079C16.8238 11.6655 17.1878 11.6528 19.0854 11.6507V11.6532ZM25.4336 13.3438C24.759 13.3438 24.2118 13.8904 24.2118 14.5652C24.2118 15.2398 24.759 15.787 25.4336 15.787C26.1081 15.787 26.6554 15.2398 26.6554 14.5652C26.6554 13.8907 26.1081 13.3434 25.4336 13.3434V13.3438ZM19.9988 14.7714C17.1112 14.7714 14.7701 17.1126 14.7701 20.0002C14.7701 22.8878 17.1112 25.2279 19.9988 25.2279C22.8863 25.2279 25.2265 22.8878 25.2265 20.0002C25.2265 17.1126 22.8861 14.7714 19.9986 14.7714H19.9988ZM19.9988 16.6062C21.873 16.6062 23.3926 18.1257 23.3926 20.0002C23.3926 21.8745 21.873 23.3941 19.9988 23.3941C18.1243 23.3941 16.6049 21.8745 16.6049 20.0002C16.6049 18.1257 18.1243 16.6062 19.9988 16.6062Z" fill="url(#paint0_radial_585_8270)"/>
<path d="M19.9988 9.81836C17.2336 9.81836 16.8866 9.83045 15.8006 9.87987C14.7167 9.92951 13.9768 10.1011 13.3295 10.3529C12.6598 10.613 12.0918 10.9608 11.5258 11.527C10.9595 12.0929 10.6116 12.661 10.3507 13.3304C10.0983 13.9781 9.92649 14.7181 9.87771 15.8017C9.82913 16.8877 9.81641 17.235 9.81641 20.0002C9.81641 22.7654 9.82871 23.1114 9.87792 24.1974C9.92777 25.2814 10.0994 26.0212 10.3509 26.6686C10.6112 27.3383 10.9591 27.9064 11.5252 28.4723C12.0909 29.0387 12.659 29.3874 13.3282 29.6474C13.976 29.8992 14.716 30.0708 15.7997 30.1205C16.8858 30.1699 17.2326 30.182 19.9975 30.182C22.7628 30.182 23.1088 30.1699 24.1948 30.1205C25.2787 30.0708 26.0194 29.8992 26.6672 29.6474C27.3367 29.3874 27.9039 29.0387 28.4696 28.4723C29.0359 27.9064 29.3838 27.3383 29.6447 26.6688C29.895 26.0212 30.0668 25.2811 30.1177 24.1976C30.1665 23.1116 30.1792 22.7654 30.1792 20.0002C30.1792 17.235 30.1665 16.8879 30.1177 15.8019C30.0668 14.7179 29.895 13.9781 29.6447 13.3307C29.3838 12.661 29.0359 12.0929 28.4696 11.527C27.9032 10.9606 27.3369 10.6128 26.6666 10.3529C26.0175 10.1011 25.2772 9.92951 24.1933 9.87987C23.1073 9.83045 22.7616 9.81836 19.9956 9.81836H19.9988ZM19.0854 11.6532C19.3565 11.6528 19.659 11.6532 19.9988 11.6532C22.7172 11.6532 23.0394 11.663 24.1129 11.7118C25.1056 11.7571 25.6444 11.923 26.0033 12.0624C26.4784 12.2469 26.8172 12.4675 27.1733 12.8239C27.5297 13.1803 27.7503 13.5197 27.9353 13.9948C28.0746 14.3533 28.2407 14.8921 28.2859 15.8848C28.3347 16.9581 28.3453 17.2806 28.3453 19.9978C28.3453 22.7151 28.3347 23.0375 28.2859 24.1109C28.2405 25.1036 28.0746 25.6424 27.9353 26.0009C27.7507 26.476 27.5297 26.8144 27.1733 27.1705C26.817 27.5269 26.4787 27.7475 26.0033 27.932C25.6448 28.072 25.1056 28.2375 24.1129 28.2829C23.0396 28.3317 22.7172 28.3423 19.9988 28.3423C17.2801 28.3423 16.9579 28.3317 15.8846 28.2829C14.8919 28.2371 14.3531 28.0712 13.994 27.9318C13.5189 27.7473 13.1795 27.5267 12.8231 27.1703C12.4668 26.8139 12.2462 26.4754 12.0612 26C11.9219 25.6415 11.7558 25.1028 11.7106 24.11C11.6618 23.0367 11.652 22.7143 11.652 19.9953C11.652 17.2763 11.6618 16.9556 11.7106 15.8823C11.756 14.8895 11.9219 14.3508 12.0612 13.9918C12.2458 13.5167 12.4668 13.1773 12.8231 12.8209C13.1795 12.4646 13.5189 12.244 13.994 12.059C14.3529 11.919 14.8919 11.7535 15.8846 11.7079C16.8238 11.6655 17.1878 11.6528 19.0854 11.6507V11.6532ZM25.4336 13.3438C24.759 13.3438 24.2118 13.8904 24.2118 14.5652C24.2118 15.2398 24.759 15.787 25.4336 15.787C26.1081 15.787 26.6553 15.2398 26.6553 14.5652C26.6553 13.8907 26.1081 13.3434 25.4336 13.3434V13.3438ZM19.9988 14.7714C17.1112 14.7714 14.7701 17.1126 14.7701 20.0002C14.7701 22.8878 17.1112 25.2279 19.9988 25.2279C22.8863 25.2279 25.2265 22.8878 25.2265 20.0002C25.2265 17.1126 22.8861 14.7714 19.9986 14.7714H19.9988ZM19.9988 16.6062C21.873 16.6062 23.3926 18.1257 23.3926 20.0002C23.3926 21.8745 21.873 23.3941 19.9988 23.3941C18.1243 23.3941 16.6049 21.8745 16.6049 20.0002C16.6049 18.1257 18.1243 16.6062 19.9988 16.6062Z" fill="url(#paint1_radial_585_8270)"/>
<defs>
<radialGradient id="paint0_radial_585_8270" cx="0" cy="0" r="1" gradientUnits="userSpaceOnUse" gradientTransform="translate(15.2253 31.7504) rotate(-90) scale(20.1819 18.77)">
<stop stop-color="#FFDD55"/>
<stop offset="0.1" stop-color="#FFDD55"/>
<stop offset="0.5" stop-color="#FF543E"/>
<stop offset="1" stop-color="#C837AB"/>
</radialGradient>
<radialGradient id="paint1_radial_585_8270" cx="0" cy="0" r="1" gradientUnits="userSpaceOnUse" gradientTransform="translate(6.40553 11.2853) rotate(78.6811) scale(9.02136 37.185)">
<stop stop-color="#3771C8"/>
<stop offset="0.128" stop-color="#3771C8"/>
<stop offset="1" stop-color="#6600FF" stop-opacity="0"/>
</radialGradient>
</defs>
</svg>
