<svg width="40" height="40" viewBox="0 0 40 40" fill="#fff" xmlns="http://www.w3.org/2000/svg">
<rect x="0.5" y="0.5" width="39" height="39" rx="19.5" stroke="#EAE9E9"/>
<path fill-rule="evenodd" clip-rule="evenodd" d="M29.0673 15.4369C29.0752 15.6409 29.0778 15.8449 29.0778 16.0489C29.0778 22.2348 24.7264 29.3761 16.769 29.3761C14.3247 29.3761 12.0518 28.597 10.1367 27.2708C10.4752 27.3079 10.819 27.3358 11.1681 27.3358C13.1948 27.3358 15.0615 26.5844 16.5422 25.3231C14.6491 25.2953 13.0506 23.932 12.4993 22.0772C12.764 22.1328 13.0365 22.1607 13.3153 22.1607C13.7083 22.1607 14.0899 22.1051 14.4557 21.9938C12.4747 21.5672 10.9826 19.6753 10.9826 17.4031C10.9826 17.3753 10.9826 17.366 10.9826 17.3474C11.5664 17.6906 12.2346 17.9038 12.9442 17.9316C11.7818 17.0877 11.0177 15.6502 11.0177 14.0272C11.0177 13.174 11.2305 12.3671 11.6051 11.6715C13.7382 14.5094 16.9273 16.3736 20.5226 16.5683C20.4488 16.2252 20.4109 15.8636 20.4109 15.5019C20.4109 12.9144 22.3479 10.8184 24.7378 10.8184C25.9819 10.8184 27.1056 11.3842 27.8944 12.293C28.8818 12.089 29.8068 11.6995 30.6438 11.1616C30.3194 12.256 29.6344 13.1739 28.7393 13.7489C29.6151 13.6376 30.4504 13.3874 31.225 13.0165C30.6438 13.9532 29.9123 14.7784 29.0673 15.4369Z" fill="#1EA1F2"/>
</svg>
