<svg width="21" height="19" viewBox="0 0 21 19" fill="none" xmlns="http://www.w3.org/2000/svg">
<path d="M12.6818 2.41332L14.5388 4.44286H18.6486V16.6201H2.41235V4.44286H6.52216L8.37918 2.41332H12.6818ZM13.5748 0.383789H7.48619L5.62916 2.41332H2.41235C1.2961 2.41332 0.382812 3.32662 0.382812 4.44286V16.6201C0.382812 17.7363 1.2961 18.6496 2.41235 18.6496H18.6486C19.7649 18.6496 20.6782 17.7363 20.6782 16.6201V4.44286C20.6782 3.32662 19.7649 2.41332 18.6486 2.41332H15.4318L13.5748 0.383789ZM10.5305 7.48716C12.2049 7.48716 13.5748 8.8571 13.5748 10.5315C13.5748 12.2058 12.2049 13.5758 10.5305 13.5758C8.85612 13.5758 7.48619 12.2058 7.48619 10.5315C7.48619 8.8571 8.85612 7.48716 10.5305 7.48716ZM10.5305 5.45763C7.72973 5.45763 5.45665 7.73071 5.45665 10.5315C5.45665 13.3322 7.72973 15.6053 10.5305 15.6053C13.3313 15.6053 15.6043 13.3322 15.6043 10.5315C15.6043 7.73071 13.3313 5.45763 10.5305 5.45763Z" fill="white"/>
</svg>
