<svg width="28" height="28" viewBox="0 0 28 28" fill="none" xmlns="http://www.w3.org/2000/svg">
<rect x="0.5" y="0.5" width="27" height="27" rx="13.5" fill="white" stroke="#C9C9C9"/>
<path d="M15.59 8L16.9625 9.5H20V18.5H8V9.5H11.0375L12.41 8H15.59ZM16.25 6.5H11.75L10.3775 8H8C7.175 8 6.5 8.675 6.5 9.5V18.5C6.5 19.325 7.175 20 8 20H20C20.825 20 21.5 19.325 21.5 18.5V9.5C21.5 8.675 20.825 8 20 8H17.6225L16.25 6.5ZM14 11.75C15.2375 11.75 16.25 12.7625 16.25 14C16.25 15.2375 15.2375 16.25 14 16.25C12.7625 16.25 11.75 15.2375 11.75 14C11.75 12.7625 12.7625 11.75 14 11.75ZM14 10.25C11.93 10.25 10.25 11.93 10.25 14C10.25 16.07 11.93 17.75 14 17.75C16.07 17.75 17.75 16.07 17.75 14C17.75 11.93 16.07 10.25 14 10.25Z" fill="#B8B8B8"/>
</svg>
