<svg width="19" height="18" viewBox="0 0 19 18" fill="none" xmlns="http://www.w3.org/2000/svg">
<path d="M8.33333 17.5C7.19445 17.5 6.11806 17.2813 5.10417 16.8438C4.09028 16.4063 3.20486 15.809 2.44792 15.0521C1.69097 14.2951 1.09375 13.4097 0.65625 12.3958C0.21875 11.3819 0 10.3056 0 9.16667C0 8.01389 0.21875 6.93056 0.65625 5.91667C1.09375 4.90278 1.69097 4.02083 2.44792 3.27083C3.20486 2.52083 4.09028 1.92708 5.10417 1.48958C6.11806 1.05208 7.19445 0.833333 8.33333 0.833333C8.97222 0.833333 9.58681 0.902778 10.1771 1.04167C10.7674 1.18056 11.3333 1.375 11.875 1.625V3.02083C11.3472 2.71528 10.7882 2.48264 10.1979 2.32292C9.60764 2.16319 8.98611 2.08333 8.33333 2.08333C6.375 2.08333 4.70486 2.77083 3.32292 4.14583C1.94097 5.52083 1.25 7.19445 1.25 9.16667C1.25 11.125 1.94097 12.7951 3.32292 14.1771C4.70486 15.559 6.375 16.25 8.33333 16.25C10.3056 16.25 11.9792 15.559 13.3542 14.1771C14.7292 12.7951 15.4167 11.125 15.4167 9.16667C15.4167 8.68056 15.3715 8.21181 15.2812 7.76042C15.191 7.30903 15.0556 6.875 14.875 6.45833H16.2083C16.3611 6.88889 16.4757 7.32639 16.5521 7.77083C16.6285 8.21528 16.6667 8.68056 16.6667 9.16667C16.6667 10.3056 16.4479 11.3819 16.0104 12.3958C15.5729 13.4097 14.9792 14.2951 14.2292 15.0521C13.4792 15.809 12.5972 16.4063 11.5833 16.8438C10.5694 17.2813 9.48611 17.5 8.33333 17.5ZM11.375 8.0625C11.6944 8.0625 11.9618 7.95486 12.1771 7.73958C12.3924 7.52431 12.5 7.25695 12.5 6.9375C12.5 6.61806 12.3924 6.3507 12.1771 6.13542C11.9618 5.92014 11.6944 5.8125 11.375 5.8125C11.0556 5.8125 10.7882 5.92014 10.5729 6.13542C10.3576 6.3507 10.25 6.61806 10.25 6.9375C10.25 7.25695 10.3576 7.52431 10.5729 7.73958C10.7882 7.95486 11.0556 8.0625 11.375 8.0625ZM5.29167 8.0625C5.61111 8.0625 5.87847 7.95486 6.09375 7.73958C6.30903 7.52431 6.41667 7.25695 6.41667 6.9375C6.41667 6.61806 6.30903 6.3507 6.09375 6.13542C5.87847 5.92014 5.61111 5.8125 5.29167 5.8125C4.97222 5.8125 4.70486 5.92014 4.48958 6.13542C4.27431 6.3507 4.16667 6.61806 4.16667 6.9375C4.16667 7.25695 4.27431 7.52431 4.48958 7.73958C4.70486 7.95486 4.97222 8.0625 5.29167 8.0625ZM8.33333 13.7292C9.25 13.7292 10.0938 13.4826 10.8646 12.9896C11.6354 12.4965 12.1944 11.8264 12.5417 10.9792H4.125C4.48611 11.8264 5.04861 12.4965 5.8125 12.9896C6.57639 13.4826 7.41667 13.7292 8.33333 13.7292ZM15.2083 5V3.125H13.3333V1.875H15.2083V0H16.4583V1.875H18.3333V3.125H16.4583V5H15.2083Z" fill="black"/>
</svg>
