<svg width="40" height="40" viewBox="0 0 40 40" fill="none" xmlns="http://www.w3.org/2000/svg">
<rect x="0.5" y="0.5" width="39" height="39" rx="19.5" fill="black" fill-opacity="0.2" stroke="white"/>
<path d="M11 29L23.0554 23.0554L29 11L22.9723 13.9723L16.9446 16.9446L11 29ZM20.0208 21.642C19.5497 21.642 19.1547 21.4827 18.836 21.164C18.5173 20.8453 18.358 20.4503 18.358 19.9792C18.358 19.5081 18.5173 19.1132 18.836 18.7945C19.1547 18.4758 19.5497 18.3164 20.0208 18.3164C20.4919 18.3164 20.8868 18.4758 21.2055 18.7945C21.5243 19.1132 21.6836 19.5081 21.6836 19.9792C21.6836 20.4503 21.5243 20.8453 21.2055 21.164C20.8868 21.4827 20.4919 21.642 20.0208 21.642Z" fill="white"/>
</svg>
