<svg width="16" height="15" viewBox="0 0 16 15" fill="none" xmlns="http://www.w3.org/2000/svg">
<path d="M7.24909 12.6528L7.24837 12.6521C5.30706 10.8917 3.7363 9.46629 2.64484 8.13188C1.55912 6.80449 1 5.62826 1 4.375C1 2.34114 2.59114 0.75 4.625 0.75C5.77861 0.75 6.89362 1.28947 7.61933 2.14167L8 2.5887L8.38068 2.14167C9.10638 1.28947 10.2214 0.75 11.375 0.75C13.4089 0.75 15 2.34114 15 4.375C15 5.62827 14.4409 6.80452 13.3551 8.13294C12.264 9.4678 10.6941 10.8944 8.75388 12.6576L8.75231 12.659L8.75124 12.66L8.00128 13.3375L7.24909 12.6528Z" stroke="white"/>
</svg>
