<svg width="40" height="40" viewBox="0 0 40 40" fill="none" xmlns="http://www.w3.org/2000/svg">
<rect x="0.5" y="0.5" width="39" height="39" rx="19.5" fill="black" fill-opacity="0.2" stroke="white"/>
<path d="M10 27.0741V24.9437C10 24.4149 10.1357 23.9352 10.4072 23.5046C10.6787 23.074 11.0558 22.7529 11.5385 22.5414C12.6395 22.0579 13.6312 21.7104 14.5136 21.4988C15.3959 21.2873 16.3047 21.1815 17.2398 21.1815C18.175 21.1815 19.0799 21.2873 19.9548 21.4988C20.8296 21.7104 21.8175 22.0579 22.9186 22.5414C23.4012 22.7529 23.7821 23.074 24.0611 23.5046C24.3401 23.9352 24.4796 24.4149 24.4796 24.9437V27.0741H10ZM17.2398 19.7991C16.2443 19.7991 15.4299 19.4818 14.7964 18.8472C14.1629 18.2126 13.8462 17.3967 13.8462 16.3995C13.8462 15.4023 14.1629 14.5864 14.7964 13.9519C15.4299 13.3173 16.2443 13 17.2398 13C18.2353 13 19.0498 13.3173 19.6833 13.9519C20.3167 14.5864 20.6335 15.4023 20.6335 16.3995C20.6335 17.3967 20.3167 18.2126 19.6833 18.8472C19.0498 19.4818 18.2353 19.7991 17.2398 19.7991ZM25.3846 16.3995C25.3846 17.3967 25.0679 18.2126 24.4344 18.8472C23.8009 19.4818 22.9864 19.7991 21.991 19.7991C21.825 19.7991 21.6403 19.7877 21.4367 19.7651C21.233 19.7424 21.0483 19.7009 20.8824 19.6404C21.2443 19.2627 21.5196 18.7981 21.7081 18.2466C21.8967 17.6951 21.991 17.0794 21.991 16.3995C21.991 15.7196 21.8967 15.119 21.7081 14.5978C21.5196 14.0765 21.2443 13.5968 20.8824 13.1586C21.0483 13.1133 21.233 13.0755 21.4367 13.0453C21.6403 13.0151 21.825 13 21.991 13C22.9864 13 23.8009 13.3173 24.4344 13.9519C25.0679 14.5864 25.3846 15.4023 25.3846 16.3995ZM25.8371 27.0741V24.9437C25.8371 23.9918 25.5958 23.2099 25.1131 22.598C24.6305 21.9861 23.997 21.4913 23.2127 21.1136C24.2534 21.2344 25.2338 21.412 26.1538 21.6462C27.0739 21.8803 27.8205 22.1485 28.3937 22.4507C28.8914 22.7378 29.2836 23.0928 29.5701 23.5159C29.8567 23.9389 30 24.4149 30 24.9437V27.0741H25.8371Z" fill="white"/>
</svg>
