<svg width="19" height="19" viewBox="0 0 19 19" fill="none" xmlns="http://www.w3.org/2000/svg">
<path d="M16.9623 2.10096V13.3415H5.72182V2.10096H16.9623ZM16.9623 0.227539H5.72182C4.69144 0.227539 3.8484 1.07058 3.8484 2.10096V13.3415C3.8484 14.3718 4.69144 15.2149 5.72182 15.2149H16.9623C17.9927 15.2149 18.8357 14.3718 18.8357 13.3415V2.10096C18.8357 1.07058 17.9927 0.227539 16.9623 0.227539ZM9.0003 9.28551L10.5833 11.4025L12.9064 8.49868L16.0256 12.4048H6.65852L9.0003 9.28551ZM0.101562 3.97437V17.0883C0.101562 18.1187 0.944601 18.9617 1.97498 18.9617H15.0889V17.0883H1.97498V3.97437H0.101562Z" fill="white"/>
</svg>
