<svg width="28" height="29" viewBox="0 0 28 29" fill="none" xmlns="http://www.w3.org/2000/svg">
<path d="M25.4384 11.9823H24.4987V11.9328H13.9987V16.7058H20.5921C19.6302 19.4844 17.0454 21.4789 13.9987 21.4789C10.1329 21.4789 6.9987 18.2732 6.9987 14.3193C6.9987 10.3655 10.1329 7.15976 13.9987 7.15976C15.7831 7.15976 17.4065 7.84827 18.6426 8.97292L21.9425 5.59778C19.8589 3.6116 17.0717 2.38672 13.9987 2.38672C7.55578 2.38672 2.33203 7.72954 2.33203 14.3193C2.33203 20.9091 7.55578 26.2519 13.9987 26.2519C20.4416 26.2519 25.6654 20.9091 25.6654 14.3193C25.6654 13.5192 25.5849 12.7383 25.4384 11.9823Z" fill="#FFC107"/>
<path d="M3.67969 8.76529L7.51277 11.6405C8.54994 9.01409 11.0618 7.15976 14.0012 7.15976C15.7856 7.15976 17.409 7.84827 18.6451 8.97292L21.945 5.59778C19.8614 3.6116 17.0742 2.38672 14.0012 2.38672C9.52002 2.38672 5.63385 4.9743 3.67969 8.76529Z" fill="#FF3D00"/>
<path d="M13.9995 26.2521C17.013 26.2521 19.7512 25.0726 21.8214 23.1544L18.2106 20.0293C16.9999 20.971 15.5205 21.4803 13.9995 21.4791C10.965 21.4791 8.38845 19.5001 7.41778 16.7383L3.61328 19.7363C5.54411 23.6007 9.46528 26.2521 13.9995 26.2521Z" fill="#4CAF50"/>
<path d="M25.4398 11.9821H24.5V11.9326H14V16.7057H20.5934C20.1333 18.028 19.3045 19.1836 18.2093 20.0295L18.2111 20.0283L21.8219 23.1534C21.5664 23.3909 25.6667 20.2854 25.6667 14.3191C25.6667 13.5191 25.5862 12.7381 25.4398 11.9821Z" fill="#1976D2"/>
</svg>
