<svg width="14" height="14" viewBox="0 0 14 14" fill="none" xmlns="http://www.w3.org/2000/svg">
<path d="M6.99203 0.333008C3.31203 0.333008 0.332031 3.31967 0.332031 6.99967C0.332031 10.6797 3.31203 13.6663 6.99203 13.6663C10.6787 13.6663 13.6654 10.6797 13.6654 6.99967C13.6654 3.31967 10.6787 0.333008 6.99203 0.333008ZM6.9987 12.333C4.05203 12.333 1.66536 9.94634 1.66536 6.99967C1.66536 4.05301 4.05203 1.66634 6.9987 1.66634C9.94536 1.66634 12.332 4.05301 12.332 6.99967C12.332 9.94634 9.94536 12.333 6.9987 12.333ZM7.33203 3.66634H6.33203V7.66634L9.83203 9.76634L10.332 8.94634L7.33203 7.16634V3.66634Z" fill="black" fill-opacity="0.5"/>
</svg>
