<svg width="21" height="21" viewBox="0 0 21 21" fill="none" xmlns="http://www.w3.org/2000/svg">
<path d="M10.5866 0.928711C7.7796 0.928711 7.42732 0.940077 6.32484 0.986535C5.22451 1.03319 4.47345 1.1945 3.81627 1.43118C3.13648 1.67564 2.55983 2.00265 1.98533 2.53483C1.4104 3.06681 1.05727 3.60079 0.792412 4.23008C0.536171 4.83883 0.361755 5.53451 0.31223 6.55302C0.26292 7.57391 0.25 7.90032 0.25 10.4996C0.25 13.0989 0.262489 13.4241 0.312445 14.445C0.363048 15.4639 0.537248 16.1594 0.792627 16.768C1.05684 17.3975 1.40997 17.9314 1.98468 18.4634C2.55896 18.9958 3.13561 19.3236 3.81497 19.5681C4.47259 19.8047 5.22387 19.966 6.32398 20.0127C7.42646 20.0592 7.77852 20.0705 10.5853 20.0705C13.3926 20.0705 13.7438 20.0592 14.8462 20.0127C15.9466 19.966 16.6985 19.8047 17.3561 19.5681C18.0357 19.3236 18.6115 18.9958 19.1858 18.4634C19.7607 17.9314 20.1138 17.3975 20.3787 16.7682C20.6328 16.1594 20.8072 15.4637 20.8589 14.4452C20.9084 13.4243 20.9213 13.0989 20.9213 10.4996C20.9213 7.90032 20.9084 7.57411 20.8589 6.55322C20.8072 5.53431 20.6328 4.83883 20.3787 4.23028C20.1138 3.60079 19.7607 3.06681 19.1858 2.53483C18.6108 2.00245 18.0359 1.67544 17.3555 1.43118C16.6966 1.1945 15.9451 1.03319 14.8447 0.986535C13.7423 0.940077 13.3913 0.928711 10.5834 0.928711H10.5866ZM9.65941 2.65347C9.9346 2.65307 10.2417 2.65347 10.5866 2.65347C13.3463 2.65347 13.6733 2.66264 14.7631 2.7085C15.7709 2.75117 16.3178 2.9071 16.6821 3.0381C17.1645 3.21157 17.5083 3.41894 17.8699 3.75392C18.2316 4.08891 18.4556 4.40794 18.6433 4.85458C18.7848 5.19155 18.9534 5.69801 18.9993 6.63118C19.0488 7.64011 19.0596 7.94319 19.0596 10.4974C19.0596 13.0517 19.0488 13.3547 18.9993 14.3637C18.9532 15.2968 18.7848 15.8033 18.6433 16.1403C18.456 16.5869 18.2316 16.905 17.8699 17.2397C17.5081 17.5747 17.1647 17.7821 16.6821 17.9556C16.3182 18.0872 15.7709 18.2427 14.7631 18.2854C13.6736 18.3312 13.3463 18.3412 10.5866 18.3412C7.82675 18.3412 7.49967 18.3312 6.41011 18.2854C5.40237 18.2423 4.85544 18.0864 4.49089 17.9554C4.00855 17.7819 3.66403 17.5745 3.30228 17.2395C2.94053 16.9046 2.71659 16.5863 2.52882 16.1395C2.38735 15.8025 2.21875 15.296 2.17288 14.3629C2.12336 13.3539 2.11345 13.0509 2.11345 10.495C2.11345 7.9392 2.12336 7.63772 2.17288 6.62879C2.21896 5.69562 2.38735 5.18916 2.52882 4.85179C2.71615 4.40514 2.94053 4.08611 3.30228 3.75113C3.66403 3.41615 4.00855 3.20878 4.49089 3.03491C4.85523 2.90331 5.40237 2.74778 6.41011 2.70491C7.36358 2.66503 7.73309 2.65307 9.65941 2.65108V2.65347ZM16.1038 4.24264C15.419 4.24264 14.8635 4.75648 14.8635 5.39075C14.8635 6.02482 15.419 6.53926 16.1038 6.53926C16.7885 6.53926 17.344 6.02482 17.344 5.39075C17.344 4.75668 16.7885 4.24224 16.1038 4.24224V4.24264ZM10.5866 5.58456C7.65535 5.58456 5.27878 7.78527 5.27878 10.4996C5.27878 13.214 7.65535 15.4137 10.5866 15.4137C13.5179 15.4137 15.8936 13.214 15.8936 10.4996C15.8936 7.78527 13.5177 5.58456 10.5864 5.58456H10.5866ZM10.5866 7.30932C12.4893 7.30932 14.0319 8.73758 14.0319 10.4996C14.0319 12.2615 12.4893 13.6899 10.5866 13.6899C8.68376 13.6899 7.14137 12.2615 7.14137 10.4996C7.14137 8.73758 8.68376 7.30932 10.5866 7.30932Z" fill="url(#paint0_radial_1078_7774)"/>
<defs>
<radialGradient id="paint0_radial_1078_7774" cx="0" cy="0" r="1" gradientUnits="userSpaceOnUse" gradientTransform="translate(5.74084 21.5448) rotate(-90) scale(18.971 19.0543)">
<stop stop-color="#FFDD55"/>
<stop offset="0.1" stop-color="#FFDD55"/>
<stop offset="0.5" stop-color="#FF543E"/>
<stop offset="1" stop-color="#C837AB"/>
</radialGradient>
</defs>
</svg>
