<svg width="17" height="22" viewBox="0 0 17 22" fill="none" xmlns="http://www.w3.org/2000/svg">
<path d="M8.33203 0.0830078C9.6487 0.0830078 10.7695 0.545508 11.6945 1.47051C12.6195 2.39551 13.082 3.51634 13.082 4.83301V7.23301H14.832C15.2487 7.23301 15.6029 7.37884 15.8945 7.67051C16.1862 7.96217 16.332 8.31634 16.332 8.73301V19.583C16.332 19.9997 16.1862 20.3538 15.8945 20.6455C15.6029 20.9372 15.2487 21.083 14.832 21.083H1.83203C1.41536 21.083 1.0612 20.9372 0.769531 20.6455C0.477865 20.3538 0.332031 19.9997 0.332031 19.583V8.73301C0.332031 8.31634 0.477865 7.96217 0.769531 7.67051C1.0612 7.37884 1.41536 7.23301 1.83203 7.23301H3.58203V4.83301C3.58203 3.51634 4.04453 2.39551 4.96953 1.47051C5.89453 0.545508 7.01536 0.0830078 8.33203 0.0830078ZM8.33203 1.58301C7.43203 1.58301 6.66536 1.89967 6.03203 2.53301C5.3987 3.16634 5.08203 3.93301 5.08203 4.83301V7.23301H11.582V4.83301C11.582 3.93301 11.2654 3.16634 10.632 2.53301C9.9987 1.89967 9.23203 1.58301 8.33203 1.58301ZM1.83203 19.583H14.832V8.73301H1.83203V19.583ZM8.33203 12.233C7.7987 12.233 7.34453 12.4372 6.96953 12.8455C6.59453 13.2538 6.40703 13.708 6.40703 14.208C6.40703 14.7247 6.59453 15.1663 6.96953 15.533C7.34453 15.8997 7.7987 16.083 8.33203 16.083C8.86537 16.083 9.31953 15.8997 9.69453 15.533C10.0695 15.1663 10.257 14.7247 10.257 14.208C10.257 13.708 10.0695 13.2538 9.69453 12.8455C9.31953 12.4372 8.86537 12.233 8.33203 12.233ZM1.83203 8.73301V19.583V8.73301Z" fill="black"/>
</svg>
