<svg width="84" height="31" viewBox="0 0 84 31" fill="none" xmlns="http://www.w3.org/2000/svg">
<path d="M1.78138 21.9019H6.14817V12.3256C6.65891 12.1213 7.47608 11.8915 8.16557 11.8915C9.3658 11.8915 9.82546 12.249 9.82546 13.3216V21.9019H14.1667V12.1213C14.1667 9.51659 12.7367 8.52065 10.2851 8.52065C8.62524 8.52065 7.24625 9.00585 6.0971 9.89964H5.96941V8.75048H1.78138V21.9019ZM17.688 21.9275H22.0548V11.8149H24.6595V8.77602H22.0548V7.98438C22.0548 6.86076 22.5911 6.37556 23.8168 6.37556C24.3786 6.37556 24.9404 6.45217 25.2724 6.50325V3.82188C24.7872 3.64313 23.7147 3.4133 22.3868 3.4133C19.6543 3.4133 17.688 4.69014 17.688 7.47364V8.77602H16.0281V11.8149H17.688V21.9275ZM31.9006 22.1062C33.3051 22.1062 34.2755 21.8508 34.8118 21.5955V18.7864C34.4543 18.863 33.9691 18.9141 33.5094 18.9141C32.4624 18.9141 32.0794 18.6332 32.0794 17.7139V11.7894H34.7352V8.77602H32.0794V5.66053H27.7126V8.77602H26.0782V11.7894H27.7126V18.3523C27.7126 21.238 29.2703 22.1062 31.9006 22.1062ZM37.4271 21.953H40.3638V11.7383C41.1555 11.3297 42.1259 11.0233 43.0707 11.0233C44.5519 11.0233 45.0882 11.5595 45.0882 12.8619V21.953H47.9738V12.3512C47.9738 12.0958 47.9483 11.9681 47.9227 11.7638C48.9187 11.2786 49.7869 11.0233 50.6552 11.0233C52.1618 11.0233 52.6726 11.5595 52.6726 12.8619V21.953H55.5838V12.1724C55.5838 9.56766 54.2814 8.57173 51.9575 8.57173C50.4764 8.57173 48.9953 9.13353 47.6418 10.0529H47.4886C46.9013 9.03139 45.8798 8.57173 44.3731 8.57173C42.8409 8.57173 41.4875 9.18461 40.3638 9.97625H40.2617V8.80155H37.4271V21.953ZM75.6848 22.1828C77.3958 22.1828 78.4428 21.621 79.0812 20.8804H79.2344L79.4642 21.953H81.8902V12.5044C81.8902 9.77195 80.1282 8.59726 77.0893 8.59726C75.3784 8.59726 73.9738 8.82709 72.7481 9.31229V11.3297C73.5397 11.1509 74.6633 10.9722 75.9402 10.9722C78.1619 10.9722 78.9535 11.3808 78.9535 13.1683V14.1643L75.8636 14.5218C73.2588 14.9048 71.65 16.0285 71.65 18.4545C71.65 20.9826 73.3099 22.1828 75.6848 22.1828ZM76.5786 20.1143C75.3784 20.1143 74.5356 19.5525 74.5356 18.3012C74.5356 16.9733 75.2251 16.4371 76.5275 16.3349L78.9535 16.0795V19.3227C78.4683 19.7824 77.5234 20.1143 76.5786 20.1143Z" fill="white"/>
<path d="M58.8004 12.702L63.5445 9.96294L68.2886 12.702V18.18L63.5445 20.919L58.8004 18.18V12.702Z" stroke="url(#paint0_linear_585_8591)" stroke-width="2.85526" fill='none'/>
<path d="M58.8004 12.702L63.5445 9.96294L68.2886 12.702V18.18L63.5445 20.919L58.8004 18.18V12.702Z" stroke="white" stroke-width="2.85526" fill='none'/>
<defs>
<linearGradient id="paint0_linear_585_8591" x1="56.418" y1="10.9615" x2="71.1801" y2="20.0223" gradientUnits="userSpaceOnUse">
<stop stop-color="#FF0000"/>
<stop offset="0.473958" stop-color="#FF00D6"/>
<stop offset="1" stop-color="#001D84"/>
</linearGradient>
</defs>
</svg>
