<svg width="17" height="4" viewBox="0 0 17 4" fill="none" xmlns="http://www.w3.org/2000/svg">
<path d="M0.8 1.8C0.8 1.27733 0.944 0.914667 1.232 0.712C1.53067 0.498667 1.888 0.392 2.304 0.392C2.70933 0.392 3.056 0.498667 3.344 0.712C3.632 0.914667 3.776 1.27733 3.776 1.8C3.776 2.29067 3.632 2.648 3.344 2.872C3.056 3.096 2.70933 3.208 2.304 3.208C1.888 3.208 1.53067 3.096 1.232 2.872C0.944 2.648 0.8 2.29067 0.8 1.8ZM7.31375 1.8C7.31375 1.27733 7.45775 0.914667 7.74575 0.712C8.04442 0.498667 8.40175 0.392 8.81775 0.392C9.22308 0.392 9.56975 0.498667 9.85775 0.712C10.1458 0.914667 10.2898 1.27733 10.2898 1.8C10.2898 2.29067 10.1458 2.648 9.85775 2.872C9.56975 3.096 9.22308 3.208 8.81775 3.208C8.40175 3.208 8.04442 3.096 7.74575 2.872C7.45775 2.648 7.31375 2.29067 7.31375 1.8ZM13.8275 1.8C13.8275 1.27733 13.9715 0.914667 14.2595 0.712C14.5582 0.498667 14.9155 0.392 15.3315 0.392C15.7368 0.392 16.0835 0.498667 16.3715 0.712C16.6595 0.914667 16.8035 1.27733 16.8035 1.8C16.8035 2.29067 16.6595 2.648 16.3715 2.872C16.0835 3.096 15.7368 3.208 15.3315 3.208C14.9155 3.208 14.5582 3.096 14.2595 2.872C13.9715 2.648 13.8275 2.29067 13.8275 1.8Z" fill="black"/>
</svg>
