<svg width="14" height="14" viewBox="0 0 14 14" fill="none" xmlns="http://www.w3.org/2000/svg">
<path d="M6.9987 0.333008C7.45893 0.333008 7.83203 0.618963 7.83203 1.99967V6.16634H11.9987C13.3794 6.16634 13.6654 6.53944 13.6654 6.99967C13.6654 7.45991 13.3794 7.83301 11.9987 7.83301H7.83203V11.9997C7.83203 13.3804 7.45893 13.6663 6.9987 13.6663C6.53846 13.6663 6.16536 13.3804 6.16536 11.9997V7.83301H1.9987C0.617986 7.83301 0.332031 7.45991 0.332031 6.99967C0.332031 6.53944 0.617986 6.16634 1.9987 6.16634H6.16536V1.99967C6.16536 0.618963 6.53846 0.333008 6.9987 0.333008Z" fill="#171718"/>
</svg>
