<svg width="24" height="24" viewBox="0 0 24 24" fill="none" xmlns="http://www.w3.org/2000/svg">
<path d="M15.1493 14H14.3791L14.1061 13.73C15.0616 12.59 15.6368 11.11 15.6368 9.5C15.6368 5.91 12.7998 3 9.29982 3C5.79989 3 2.96289 5.91 2.96289 9.5C2.96289 13.09 5.79989 16 9.29982 16C10.8694 16 12.3123 15.41 13.4237 14.43L13.6869 14.71V15.5L18.5615 20.49L20.0141 19L15.1493 14ZM9.29982 14C6.87229 14 4.91272 11.99 4.91272 9.5C4.91272 7.01 6.87229 5 9.29982 5C11.7274 5 13.6869 7.01 13.6869 9.5C13.6869 11.99 11.7274 14 9.29982 14Z" fill="#9B9B9B"/>
</svg>
