<svg width="24" height="28" viewBox="0 0 24 28" fill="none" xmlns="http://www.w3.org/2000/svg">
<path d="M12 0.25L0.75 5.25V12.75C0.75 19.6875 5.55 26.175 12 27.75C18.45 26.175 23.25 19.6875 23.25 12.75V5.25L12 0.25ZM20.75 12.75C20.75 15.0625 20.1125 17.3125 19.025 19.2625L17.2125 17.45C18.825 15.025 18.55 11.725 16.4125 9.5875C13.975 7.15 10.0125 7.15 7.575 9.5875C5.1375 12.025 5.1375 15.9875 7.575 18.425C9.7125 20.5625 13.0125 20.825 15.4375 19.225L17.5875 21.375C16.1 23.15 14.175 24.5125 12 25.175C6.975 23.6125 3.25 18.4 3.25 12.75V6.875L12 2.9875L20.75 6.875V12.75ZM12 17.75C9.925 17.75 8.25 16.075 8.25 14C8.25 11.925 9.925 10.25 12 10.25C14.075 10.25 15.75 11.925 15.75 14C15.75 16.075 14.075 17.75 12 17.75Z" fill="#686868"/>
</svg>
