<svg width="80" height="80" viewBox="0 0 80 80" fill="none" xmlns="http://www.w3.org/2000/svg">
<rect x="0.5" y="0.5" width="79" height="79" rx="39.5" stroke="black" fill="#fff" stroke-dasharray="4 4"/>
<path d="M39.4997 46.4104C41.0497 46.4104 42.3521 45.883 43.407 44.8281C44.4618 43.7733 44.9893 42.4601 44.9893 40.8885C44.9893 39.3385 44.4618 38.0415 43.407 36.9974C42.3521 35.9533 41.0497 35.4313 39.4997 35.4313C37.9281 35.4313 36.6203 35.9533 35.5762 36.9974C34.5321 38.0415 34.0101 39.3385 34.0101 40.8885C34.0101 42.4601 34.5321 43.7733 35.5762 44.8281C36.6203 45.883 37.9281 46.4104 39.4997 46.4104ZM39.4997 44.4729C38.4663 44.4729 37.616 44.1339 36.9486 43.4557C36.2813 42.7776 35.9476 41.9219 35.9476 40.8885C35.9476 39.8767 36.2813 39.0372 36.9486 38.3698C37.616 37.7024 38.4663 37.3688 39.4997 37.3688C40.5115 37.3688 41.3564 37.7024 42.0346 38.3698C42.7127 39.0372 43.0518 39.8767 43.0518 40.8885C43.0518 41.9219 42.7127 42.7776 42.0346 43.4557C41.3564 44.1339 40.5115 44.4729 39.4997 44.4729ZM28.5205 51.125C28.0038 51.125 27.5518 50.9312 27.1643 50.5437C26.7768 50.1562 26.583 49.7042 26.583 49.1875V32.6219C26.583 32.1267 26.7768 31.68 27.1643 31.2818C27.5518 30.8835 28.0038 30.6844 28.5205 30.6844H33.2674L35.6247 27.875H43.3747L45.732 30.6844H50.4788C50.974 30.6844 51.4207 30.8835 51.8189 31.2818C52.2172 31.68 52.4163 32.1267 52.4163 32.6219V49.1875C52.4163 49.7042 52.2172 50.1562 51.8189 50.5437C51.4207 50.9312 50.974 51.125 50.4788 51.125H28.5205ZM50.4788 49.1875V32.6219H44.8278L42.4705 29.8125H36.5288L34.1715 32.6219H28.5205V49.1875H50.4788Z" fill="black"/>
</svg>
