<svg width="15" height="16" viewBox="0 0 15 16" fill="none" xmlns="http://www.w3.org/2000/svg">
<path fill="none" d="M8.82564 2.22818L9.23922 2.9504C9.39529 3.22325 9.62091 3.44983 9.89309 3.60707C10.1653 3.7643 10.4743 3.84656 10.7886 3.84546H11.6034C11.9167 3.84419 12.2247 3.92573 12.4964 4.08182C12.768 4.23791 12.9936 4.46301 13.1502 4.73432C13.3068 5.00562 13.389 5.31351 13.3884 5.62679C13.3878 5.94007 13.3044 6.24762 13.1466 6.5183L12.7269 7.23435C12.5691 7.50628 12.4861 7.81505 12.4861 8.12941C12.4861 8.44377 12.5691 8.75255 12.7269 9.02447L13.1466 9.74052C13.3028 10.011 13.385 10.3179 13.3848 10.6303C13.3846 10.9427 13.3022 11.2495 13.1457 11.5199C12.9893 11.7902 12.7643 12.0146 12.4936 12.1704C12.2228 12.3261 11.9158 12.4078 11.6034 12.4072H10.7886C10.4743 12.4061 10.1653 12.4883 9.89309 12.6456C9.62091 12.8028 9.39529 13.0294 9.23922 13.3023L8.82564 14.0245C8.6701 14.2964 8.44545 14.5225 8.17445 14.6797C7.90345 14.8369 7.59572 14.9196 7.28243 14.9196C6.96913 14.9196 6.6614 14.8369 6.3904 14.6797C6.1194 14.5225 5.89476 14.2964 5.73922 14.0245L5.32564 13.3023C5.16956 13.0294 4.94394 12.8028 4.67176 12.6456C4.39958 12.4883 4.09058 12.4061 3.77625 12.4072H2.96144C2.64816 12.4085 2.34011 12.3269 2.06848 12.1708C1.79685 12.0147 1.5713 11.7896 1.41465 11.5183C1.25801 11.247 1.17584 10.9391 1.17647 10.6259C1.17709 10.3126 1.2605 10.005 1.41823 9.73435L1.83798 9.0183C1.9957 8.74637 2.07877 8.4376 2.07877 8.12324C2.07877 7.80888 1.9957 7.5001 1.83798 7.22818L1.40588 6.51213C1.2476 6.24054 1.16416 5.93185 1.16406 5.6175C1.16397 5.30316 1.24722 4.99441 1.40533 4.72273C1.56345 4.45105 1.79077 4.22615 2.06413 4.07096C2.33749 3.91576 2.64712 3.83582 2.96144 3.83929H3.77625C4.08998 3.84101 4.39857 3.75968 4.67069 3.60357C4.94281 3.44745 5.16878 3.2221 5.32564 2.9504L5.73922 2.22818C5.89476 1.95622 6.1194 1.7302 6.3904 1.573C6.6614 1.4158 6.96913 1.33301 7.28243 1.33301C7.59572 1.33301 7.90345 1.4158 8.17445 1.573C8.44545 1.7302 8.6701 1.95622 8.82564 2.22818Z" stroke="#171718" stroke-width="1.5" stroke-linecap="round" stroke-linejoin="round"/>
<path fill="none" d="M7.28482 10.4632C8.57689 10.4632 9.62433 9.41576 9.62433 8.12369C9.62433 6.83161 8.57689 5.78418 7.28482 5.78418C5.99275 5.78418 4.94531 6.83161 4.94531 8.12369C4.94531 9.41576 5.99275 10.4632 7.28482 10.4632Z" stroke="#171718" stroke-width="2" stroke-linecap="round" stroke-linejoin="round"/>
</svg>
