<svg width="16" height="18" viewBox="0 0 16 18" fill="none" xmlns="http://www.w3.org/2000/svg">
<path d="M12.6955 12.4001C12.0584 12.4001 11.4884 12.6501 11.0524 13.0417L5.07541 9.58342C5.11732 9.39175 5.15086 9.20008 5.15086 9.00008C5.15086 8.80008 5.11732 8.60842 5.07541 8.41675L10.9854 4.99175C11.4381 5.40841 12.0332 5.66675 12.6955 5.66675C14.0871 5.66675 15.2104 4.55008 15.2104 3.16675C15.2104 1.78341 14.0871 0.666748 12.6955 0.666748C11.3039 0.666748 10.1806 1.78341 10.1806 3.16675C10.1806 3.36675 10.2141 3.55841 10.2561 3.75008L4.34609 7.17508C3.89341 6.75842 3.29823 6.50008 2.63597 6.50008C1.24441 6.50008 0.121094 7.61675 0.121094 9.00008C0.121094 10.3834 1.24441 11.5001 2.63597 11.5001C3.29823 11.5001 3.89341 11.2417 4.34609 10.8251L10.3147 14.2917C10.2728 14.4667 10.2477 14.6501 10.2477 14.8334C10.2477 16.1751 11.3458 17.2667 12.6955 17.2667C14.0452 17.2667 15.1433 16.1751 15.1433 14.8334C15.1433 13.4917 14.0452 12.4001 12.6955 12.4001ZM12.6955 2.33341C13.1566 2.33341 13.5338 2.70841 13.5338 3.16675C13.5338 3.62508 13.1566 4.00008 12.6955 4.00008C12.2344 4.00008 11.8572 3.62508 11.8572 3.16675C11.8572 2.70841 12.2344 2.33341 12.6955 2.33341ZM2.63597 9.83342C2.17491 9.83342 1.79768 9.45842 1.79768 9.00008C1.79768 8.54175 2.17491 8.16675 2.63597 8.16675C3.09704 8.16675 3.47427 8.54175 3.47427 9.00008C3.47427 9.45842 3.09704 9.83342 2.63597 9.83342ZM12.6955 15.6834C12.2344 15.6834 11.8572 15.3084 11.8572 14.8501C11.8572 14.3917 12.2344 14.0167 12.6955 14.0167C13.1566 14.0167 13.5338 14.3917 13.5338 14.8501C13.5338 15.3084 13.1566 15.6834 12.6955 15.6834Z" fill="black" fill-opacity="0.5"/>
</svg>
