<svg width="28" height="24" viewBox="0 0 28 24" fill="none" xmlns="http://www.w3.org/2000/svg">
<path d="M8.80544 23.3755C19.3715 23.3755 25.1507 14.6216 25.1507 7.0302C25.1507 6.78156 25.1507 6.53404 25.1339 6.28764C26.2582 5.47442 27.2287 4.46751 28 3.31404C26.9516 3.77884 25.8394 4.08352 24.7005 4.21788C25.8998 3.50002 26.7973 2.37079 27.2261 1.04044C26.0984 1.70965 24.8647 2.18124 23.5782 2.43484C22.7121 1.51385 21.5666 0.903988 20.3189 0.699638C19.0712 0.495289 17.791 0.70784 16.6763 1.3044C15.5616 1.90096 14.6746 2.84828 14.1525 3.99975C13.6305 5.15122 13.5025 6.44265 13.7883 7.6742C11.5044 7.55963 9.27005 6.96607 7.23036 5.93205C5.19068 4.89802 3.39122 3.44664 1.9488 1.67212C1.21418 2.93678 0.989184 4.43389 1.31962 5.85861C1.65005 7.28334 2.51107 8.52857 3.72736 9.34076C2.8131 9.31397 1.91876 9.06733 1.12 8.62172V8.69452C1.12036 10.0208 1.57949 11.3062 2.41952 12.3326C3.25954 13.359 4.42874 14.0633 5.7288 14.3259C4.88306 14.5566 3.99569 14.5903 3.13488 14.4244C3.50212 15.5658 4.21683 16.5639 5.17911 17.2792C6.14139 17.9945 7.30313 18.3912 8.50192 18.4139C7.31084 19.3501 5.94687 20.0423 4.48802 20.4509C3.02917 20.8595 1.50408 20.9764 0 20.795C2.62714 22.4809 5.68391 23.3751 8.80544 23.371" fill="#1DA1F2"/>
</svg>
