<svg width="16" height="15" viewBox="0 0 16 15" fill="none" xmlns="http://www.w3.org/2000/svg">
<path d="M11.7801 0.25C10.479 0.25 9.23025 0.8575 8.41518 1.8175C7.60011 0.8575 6.35134 0.25 5.05022 0.25C2.7471 0.25 0.9375 2.065 0.9375 4.375C0.9375 7.21 3.47991 9.52 7.33092 13.03L8.41518 14.0125L9.49944 13.0225C13.3504 9.52 15.8929 7.21 15.8929 4.375C15.8929 2.065 14.0833 0.25 11.7801 0.25ZM8.48996 11.9125L8.41518 11.9875L8.3404 11.9125C4.78103 8.68 2.43304 6.5425 2.43304 4.375C2.43304 2.875 3.55469 1.75 5.05022 1.75C6.20179 1.75 7.32344 2.4925 7.71975 3.52H9.11808C9.50692 2.4925 10.6286 1.75 11.7801 1.75C13.2757 1.75 14.3973 2.875 14.3973 4.375C14.3973 6.5425 12.0493 8.68 8.48996 11.9125Z" fill="#8B8B8B"/>
</svg>
